Coordinates
version=1
nRows=15
nColumns=34
inDegrees=yes

Units are S.I. units (second, meters, Newtons, ...)
If the header above contains a line with 'inDegrees', this indicates whether rotational values are in degrees (yes) or radians (no).

endheader
time	pelvis_tilt	pelvis_list	pelvis_rotation	pelvis_tx	pelvis_ty	pelvis_tz	hip_flexion_r	hip_adduction_r	hip_rotation_r	knee_angle_r	ankle_angle_r	subtalar_angle_r	mtp_angle_r	hip_flexion_l	hip_adduction_l	hip_rotation_l	knee_angle_l	ankle_angle_l	subtalar_angle_l	mtp_angle_l	lumbar_extension	lumbar_bending	lumbar_rotation	arm_flex_r	arm_add_r	arm_rot_r	elbow_flex_r	pro_sup_r	arm_flex_l	arm_add_l	arm_rot_l	elbow_flex_l	pro_sup_l
      4.85000000	      8.23921005	      7.03233898	     -3.82612931	      0.40009217	      0.92129586	      0.10059310	     -0.95458948	     -0.13174200	      3.35733950	     16.47549563	     18.07713533	     -1.27938081	      0.00000000	     41.48956071	     -8.14421265	     -3.88756831	     12.40068522	      1.88647271	     -2.18173252	      0.00000000	    -20.49259927	     -3.38123253	      4.40918818	     86.08703148	     -4.65442990	     64.71705427	    126.18557237	     96.06780393	     84.39013527	     -7.11207076	     73.25839847	    129.12977204	     88.44519248
      4.86666670	      8.11154662	      7.16255728	     -4.03940438	      0.40229477	      0.91977948	      0.10000387	     -1.13500314	     -0.33590738	      3.59942821	     15.80098621	     17.81114561	     -1.31216710	      0.00000000	     41.43144889	     -7.99434317	     -3.86789054	     12.40232806	      2.10575710	     -2.27470951	      0.00000000	    -20.10091312	     -3.62892332	      4.41046833	     86.25101508	     -4.52681843	     64.72093223	    126.22126715	     96.05578537	     84.39966676	     -7.37443042	     73.34982041	    128.90588242	     88.44606793
      4.88333330	      8.00662668	      7.17851826	     -4.14089018	      0.40152215	      0.92032410	      0.10047269	     -1.26700043	     -0.40296015	      3.65542997	     15.31227087	     17.73093286	     -1.36226687	      0.00000000	     41.37083748	     -7.89217082	     -3.86628937	     12.32923805	      2.08067589	     -2.25019893	      0.00000000	    -19.73598136	     -3.85637951	      4.49006569	     86.34830908	     -4.37445198	     64.71990839	    126.16780619	     96.04832815	     84.44370205	     -7.36877798	     73.35800099	    128.85237275	     88.44525302
      4.90000000	      7.86045185	      7.06496704	     -4.37198386	      0.40069164	      0.92321435	      0.09979492	     -1.39748285	     -0.35128366	      3.97877952	     14.63102046	     17.45740283	     -1.26602450	      0.00000000	     41.17682248	     -7.88919727	     -3.99674591	     12.01695431	      2.11556828	     -2.28485639	      0.00000000	    -19.39052826	     -3.92023785	      4.24451631	     86.29442609	     -4.35550773	     64.81148669	    126.10765291	     96.04139665	     84.35484724	     -7.38428240	     73.42812316	    128.62600170	     88.44070623
      4.91666670	      7.84107503	      6.99443817	     -4.62811522	      0.39952051	      0.92441389	      0.09994636	     -1.58923710	     -0.30649543	      4.39612298	     13.95438892	     16.69269408	     -1.22047297	      0.00000000	     40.83795406	     -7.84976513	     -4.16899699	     11.83185129	      2.06894264	     -2.15934247	      0.00000000	    -19.10048752	     -3.89561162	      4.45136745	     85.81520744	     -4.38750091	     65.17539455	    126.02422369	     96.02855064	     83.78862319	     -7.14072209	     73.67716129	    128.80619064	     88.44782481
      4.93333330	      7.77685319	      6.94030053	     -4.61570609	      0.40082095	      0.92495970	      0.10048192	     -1.75654088	     -0.24311478	      4.64912873	     13.43748564	     16.47694725	     -1.31873415	      0.00000000	     40.55532996	     -7.72331466	     -4.03396784	     11.67450162	      2.18564108	     -1.97191863	      0.00000000	    -18.75699529	     -3.98694588	      4.40888937	     85.79948830	     -4.60792268	     65.23944602	    126.01402568	     96.00577144	     83.50316291	     -6.90195126	     73.75097748	    129.15424321	     88.46039220
      4.95000000	      7.77469412	      6.58701934	     -4.59586173	      0.40265139	      0.92685590	      0.09977344	     -2.09071404	      0.10673713	      4.97496719	     12.59739457	     18.51736506	     -1.96803050	      0.00000000	     40.22365090	     -7.83456978	     -4.01042701	     11.63897085	      2.27460514	     -1.95775140	      0.00000000	    -18.57053083	     -3.59240891	      4.51658189	     85.63176069	     -4.66425371	     65.37957488	    126.23273668	     95.99485488	     83.12371458	     -6.55845906	     73.98339974	    129.39751830	     88.48584462
      4.96666670	      7.79176423	      6.11433766	     -4.98003336	      0.39974701	      0.92587884	      0.10152419	     -2.14403079	      0.60847698	      5.83889178	     12.07116897	     20.59552842	     -2.13752745	      0.00000000	     40.06719722	     -8.35530306	     -3.77181368	     11.88277791	      2.38415174	     -1.95728565	      0.00000000	    -18.54819433	     -3.43050040	      4.74917740	     85.70888486	     -4.48076411	     65.54697835	    126.39189527	     95.97520136	     83.23260886	     -5.92610730	     74.11509692	    129.56717019	     88.53106212
      4.98333330	      7.78365390	      5.76894880	     -5.16235836	      0.40136549	      0.92842490	      0.10076996	     -2.38149138	      0.90110129	      6.19141420	     11.44751765	     22.25297557	     -2.48531622	      0.00000000	     39.70456604	     -8.61147687	     -3.46149005	     11.83945800	      2.60375642	     -2.04486631	      0.00000000	    -18.43216108	     -3.09366266	      5.01213648	     85.53242976	     -4.40941239	     65.72225306	    126.61423494	     95.97175567	     82.96165471	     -5.84764404	     74.44160817	    129.54849084	     88.56690845
      5.00000000	      7.67632846	      5.64135899	     -5.22102614	      0.40190307	      0.92837262	      0.10136599	     -2.49033783	      1.02500096	      6.35610533	     10.82245777	     22.90138840	     -2.58359907	      0.00000000	     39.43778672	     -8.58544419	     -3.34045888	     11.82204672	      2.71326784	     -2.15970167	      0.00000000	    -18.22589594	     -3.00472341	      5.24780573	     85.43901055	     -4.48335889	     65.80233271	    126.66136225	     95.96314116	     82.91009299	     -6.08447333	     74.66345884	    129.36902398	     88.59363113
      5.01666670	      7.63369023	      5.51146259	     -5.29548075	      0.40042163	      0.92814114	      0.10148075	     -2.59050742	      1.12685099	      6.54510774	     10.33974264	     23.49408574	     -2.65945081	      0.00000000	     39.24161928	     -8.54328496	     -3.20214137	     11.76228076	      2.80910446	     -2.33700476	      0.00000000	    -18.08074348	     -2.92599620	      5.38937603	     85.33812439	     -4.69621731	     65.84468300	    126.49635485	     95.94733160	     82.85701265	     -6.33713970	     74.87911043	    129.01035521	     88.61767160
      5.03333330	      7.64671568	      5.45711676	     -5.22293532	      0.40199119	      0.92678302	      0.10069330	     -2.57895681	      1.14047238	      6.47818068	     10.22141428	     23.95869396	     -2.87437693	      0.00000000	     39.09451537	     -8.29868838	     -2.77435982	     12.09066358	      3.07328482	     -2.59227031	      0.00000000	    -17.93699823	     -2.92016254	      5.75080593	     85.22605721	     -5.03070766	     65.84332002	    126.21381707	     95.92638725	     82.75666729	     -6.39870836	     75.02729006	    128.92880800	     88.64741496
      5.05000000	      7.57994578	      5.42850609	     -5.47263391	      0.40128821	      0.92843862	      0.10192622	     -2.66661679	      1.12285463	      6.51469389	      9.95578080	     24.10460993	     -2.88785696	      0.00000000	     38.96584773	     -8.21521337	     -2.35879418	     12.39390055	      3.39340769	     -2.88389715	      0.00000000	    -17.62872107	     -3.01228307	      5.98805744	     85.02519606	     -5.31032219	     65.85461634	    126.16518665	     95.90452690	     82.61288980	     -6.73740621	     75.11449510	    128.88495810	     88.67010779
      5.06666670	      7.51663257	      5.34453299	     -5.50563011	      0.39960105	      0.93031607	      0.10205074	     -2.55236170	      1.20726794	      6.51271060	      9.89661775	     24.10817439	     -2.88609542	      0.00000000	     38.78868895	     -8.07107684	     -2.36671146	     12.50634292	      3.39004992	     -2.88525143	      0.00000000	    -17.60272839	     -3.02360114	      5.99523854	     85.02524372	     -5.30639626	     65.85482869	    126.16539483	     95.90418123	     82.61414961	     -6.73858313	     75.11417134	    128.88853106	     88.67043553
      5.08333330	      7.46308998	      5.35092157	     -5.74250642	      0.40127186	      0.92905706	      0.10200498	     -2.68782654	      1.15268538	      6.57140851	      9.58455188	     24.12963713	     -2.81623989	      0.00000000	     38.67375576	     -7.96211312	     -1.98719013	     12.88509642	      3.55418354	     -3.03694059	      0.00000000	    -17.18566528	     -3.18593711	      6.39974379	     85.01470284	     -5.24555437	     65.85196438	    126.11449194	     95.89081236	     82.56438745	     -6.76754824	     75.13531795	    128.99024130	     88.68295068
